%
M48
M72
T01C0.01181
T02C0.01575
T03C0.02362
T04C0.03937
T05C0.04000
T06C0.07874
%
T01
X194616Y70193
T02
X123691Y179543
X118967Y179543
X114242Y179543
X109518Y179543
X104793Y179543
X99970Y179445
X100069Y170094
X104793Y170094
X109518Y170094
X114242Y170094
X118967Y170094
X123691Y170094
X128415Y170094
X133140Y170094
X137470Y170094
X142195Y169307
X146919Y167732
X150856Y166157
X154793Y164189
X158337Y161827
X161880Y159071
X165030Y155921
X167785Y152772
X170148Y149228
X172116Y145291
X160207Y139878
X155482Y139878
X150758Y139878
X150758Y135154
X155482Y135154
X160207Y135154
X133533Y148835
X128809Y148835
X128415Y179543
X133140Y179543
X137864Y179543
X142589Y178756
X117785Y43323
X85502Y70488
X70935Y64583
X69754Y74819
X65030Y74819
X60305Y74819
X50856Y68126
X41801Y70094
X35896Y64189
X46132Y92535
X87470Y107890
X87470Y113402
X84715Y137417
X75659Y137417
X55974Y139780
X50069Y137811
X102825Y159465
X124085Y153559
X128809Y153559
X133533Y153559
X124085Y148835
X73297Y175764
X73297Y180331
X55974Y167732
X48494Y174031
X119754Y80724
X158730Y78067
X163455Y78067
X168179Y78067
X168179Y73343
X163455Y73343
X158730Y73343
T03
X129281Y104031
X129281Y110331
X122195Y113480
X129281Y116630
X122195Y107181
T04
X64636Y88500
X56762Y88500
X56762Y96374
X64636Y96374
T05
X110620Y31276
X100620Y31276
X90620Y31276
X80620Y31276
X70620Y31276
X60620Y31276
X50620Y31276
X43652Y178953
X33652Y178953
X33652Y168953
X43652Y168953
X43652Y158953
X33652Y158953
T06
X125738Y93795
X125738Y126866
M30
